<svg width="24" height="18" viewBox="0 0 24 18" fill="none" xmlns="http://www.w3.org/2000/svg">
<path d="M10.808 0.104C7.896 0.104 6.296 1.48 5.432 2.984H5.368V0.615999H0.248V17H5.368V7.528C5.368 5.256 6.488 4.264 8.44 4.264C10.136 4.264 11 5.096 11 7.56V17H16.12V5.928C16.12 2.184 13.976 0.104 10.808 0.104ZM20.994 17.288C22.498 17.288 23.714 16.232 23.714 14.568C23.714 12.936 22.498 11.848 20.994 11.848C19.458 11.848 18.274 12.936 18.274 14.568C18.274 16.232 19.458 17.288 20.994 17.288Z" fill="black"/>
</svg>
